<?xml version="1.0" encoding="utf-8"?>
<!-- Generator: Adobe Illustrator 27.7.0, SVG Export Plug-In . SVG Version: 6.00 Build 0)  -->
<svg version="1.1" id="Capa_1" xmlns="http://www.w3.org/2000/svg" xmlns:xlink="http://www.w3.org/1999/xlink" x="0px" y="0px"
	 viewBox="0 0 1000 1000" style="enable-background:new 0 0 1000 1000;" xml:space="preserve">
<style type="text/css">
	.st0{fill:#FFFFFF;}
	.st1{fill:#4A7343;}
	.st2{fill:#E09D45;}
</style>
<g>
	<g>
		<path class="st0" d="M595.23,532.29c0.1,0.62,0.16,1.48,0.16,2.79c0,1.38-0.1,3.15-0.23,4.62c-0.59-1.84-1.38-4.03-2.36-5.67
			c-2-0.26-4.03-0.46-6.26-0.49v10.19c3.93,0,5.83-0.72,6.72-1.7c-0.07,0.52-0.13,1.61-0.13,2.52c0,0.69,0.03,1.44,0.07,1.87
			c-0.82-1.08-2.75-1.74-6.65-1.74v9.28l3.93,1.28h-10.65l3.18-1.31v-20.39l-2.95-1.25H595.23z"/>
		<path class="st0" d="M620.61,532.29l-3.15,1.25v20.52c2,0,4.56-0.26,6.1-0.69c0.82-1.57,1.54-3.41,2.03-4.66
			c0.07,0.75,0.16,2,0.16,4c0,1.38-0.07,2.1-0.1,2.52h-14.98l3.25-1.34v-20.36l-2.79-1.25H620.61z"/>
		<path class="st0" d="M665.13,543.31c0,7.01-4.65,12.42-11.93,12.42c-6.2,0-11.31-4.56-11.31-11.51c0-7.15,4.75-12.42,11.93-12.42
			C659.99,531.8,665.13,536.39,665.13,543.31z M645.82,543.93c0,5.9,2.75,10.13,7.54,10.13c5.34,0,7.83-4.62,7.83-10.46
			c0-5.87-2.75-10.13-7.61-10.13C648.41,533.47,645.82,538.03,645.82,543.93z"/>
		<path class="st0" d="M699.3,537.86c0,4.13-2.72,6.06-4.82,6.85c3.7,1.44,4.88,9.9,9.21,9.9c-0.59,0.66-1.87,1.08-3.05,1.08
			c-5.11,0-5.47-7.93-8.49-10.23c-0.43-0.33-0.95-0.62-1.44-0.82c2.36,0,4.95-2.46,4.95-6.39c0-1.87-0.56-3.44-1.08-4.29
			c-0.92-0.33-1.9-0.52-3.08-0.52c-0.56,0-1.74,0.07-2.65,0.13v20.26l4.16,1.41h-11.28l3.57-1.28v-20.32l-3.44-1.21
			c2.72-0.1,5.93-0.3,9.87-0.3C696.48,532.13,699.3,534.09,699.3,537.86z"/>
		<path class="st0" d="M718.12,532.29h14.98c0.1,0.79,0.2,1.93,0.2,3.51c0,1.24-0.07,2.65-0.13,3.77c-0.46-1.21-1.28-3.57-2-5.28
			c-1.64-0.46-4.16-0.75-6.56-0.75v9.74c3.93,0,5.41-0.69,6.29-1.7c-0.07,0.59-0.13,1.57-0.13,2.59c0,0.79,0.07,1.31,0.07,1.8
			c-0.85-1.11-2.33-1.74-6.23-1.74v9.9c2.66,0,5.28-0.36,7.01-0.79c0.79-1.44,1.61-3.31,2.07-4.62c0.07,0.85,0.13,2.46,0.13,3.67
			c0,0.92-0.03,1.97-0.07,2.85h-15.83l3.15-1.31v-20.39L718.12,532.29z"/>
		<path class="st0" d="M764.58,532.95c0,1.93-0.16,4.59-0.33,6.23c-0.62-1.93-1.15-3.21-1.97-5.05c-0.82-0.46-2-0.82-3.31-0.82
			c-2.85,0-4.46,1.51-4.46,3.57c0,5.34,10.82,5.54,10.82,12.29c0,3.67-3.18,6.42-8.06,6.42c-2.2,0-4.56-0.56-6.16-1.21
			c0-2.16,0.2-4.72,0.33-6.36c0.82,2.29,1.38,3.67,1.93,5.11c0.85,0.49,2.33,0.98,3.8,0.98c2.89,0,4.75-1.7,4.75-3.84
			c0-5.15-10.69-5.67-10.69-12.19c0-3.38,2.82-6.19,7.74-6.19C761.07,531.9,763.1,532.42,764.58,532.95z"/>
		<path class="st0" d="M807.86,549.57c0,1.41,0.43,2.46,0.89,3.08c0.69,0.23,1.67,0.49,2.69,0.49c2.53,0,4.46-1.67,5.38-3.64
			c-0.3,2.82-2.13,6.23-6.49,6.23c-3.47,0-5.61-2.23-5.61-5.11c0-3.74,3.54-5.25,4.95-5.44
			C808.74,546.06,807.86,547.67,807.86,549.57z M818.31,536.95c0,3.31-2.98,5.41-4.92,5.41c1.25-0.79,2.39-2.43,2.39-4.66
			c0-1.64-0.56-2.95-1.15-3.74c-0.52-0.26-1.28-0.49-2.1-0.49c-2.03,0-3.47,1.51-3.47,3.67c0,7.31,16.68,8.88,16.68,15.28
			c0,2.56-2.33,4.49-4.82,4.75c0.92-0.52,1.77-1.54,1.77-2.88c0-6.06-16.95-7.34-16.95-16.16c0-3.74,3.05-6.33,6.75-6.33
			C815.92,531.8,818.31,534.03,818.31,536.95z M826.12,543.93c-1.31,0-3.41-0.92-4.62-0.92c-1.21,0-2.23,1.15-2.98,2.33
			c0.59-2.43,1.87-4.88,4.1-4.88c1.25,0,3.02,0.75,4.23,0.75c1.44,0,2.03-0.92,2.26-1.25C829.1,541.63,828.05,543.93,826.12,543.93z
			"/>
	</g>
	<g>
		<path class="st0" d="M451.93,576.88h14.98c0.1,0.79,0.2,1.93,0.2,3.51c0,1.24-0.07,2.65-0.13,3.77c-0.46-1.21-1.28-3.57-2-5.28
			c-1.64-0.46-4.16-0.75-6.56-0.75v9.74c3.93,0,5.41-0.69,6.29-1.7c-0.07,0.59-0.13,1.57-0.13,2.59c0,0.79,0.07,1.31,0.07,1.8
			c-0.85-1.11-2.33-1.74-6.23-1.74v9.9c2.65,0,5.28-0.36,7.01-0.79c0.79-1.44,1.61-3.31,2.06-4.62c0.07,0.85,0.13,2.46,0.13,3.67
			c0,0.92-0.03,1.97-0.07,2.85h-15.83l3.15-1.31v-20.39L451.93,576.88z"/>
		<path class="st0" d="M504.15,576.88l-2.85,1.38l-6,9.15l6.65,11.01l2.98,1.41h-10.19l3.28-1.34l-5.28-8.79l-5.44,8.79l2.92,1.34
			h-7.74l2.43-1.34l7.05-10.06l-6.03-10.16l-3.05-1.38h9.96l-3.02,1.31l4.65,8l4.79-7.93l-3.18-1.38H504.15z"/>
		<path class="st0" d="M536.84,583.3c0,5.25-3.41,7.41-6.52,7.41c-1.77,0-2.75-0.69-3.08-1.12c0.62,0.07,1.25,0.13,1.57,0.13
			c2.2,0,4.39-1.8,4.39-6.1c0-2.29-0.59-3.97-1.12-5.02c-0.79-0.26-1.97-0.56-3.54-0.56c-0.56,0-1.44,0.03-2.1,0.07v20.26l4.36,1.44
			H519.6l3.31-1.28v-20.32l-3.38-1.18c2.89-0.16,5.7-0.3,9.41-0.3C533.56,576.75,536.84,578.81,536.84,583.3z"/>
		<path class="st0" d="M552.97,576.88h14.98c0.1,0.79,0.2,1.93,0.2,3.51c0,1.24-0.07,2.65-0.13,3.77c-0.46-1.21-1.28-3.57-2-5.28
			c-1.64-0.46-4.16-0.75-6.56-0.75v9.74c3.93,0,5.41-0.69,6.29-1.7c-0.07,0.59-0.13,1.57-0.13,2.59c0,0.79,0.07,1.31,0.07,1.8
			c-0.85-1.11-2.33-1.74-6.23-1.74v9.9c2.65,0,5.28-0.36,7.01-0.79c0.79-1.44,1.61-3.31,2.06-4.62c0.07,0.85,0.13,2.46,0.13,3.67
			c0,0.92-0.03,1.97-0.07,2.85h-15.83l3.15-1.31v-20.39L552.97,576.88z"/>
		<path class="st0" d="M602.77,582.45c0,4.13-2.72,6.06-4.82,6.85c3.7,1.44,4.88,9.9,9.21,9.9c-0.59,0.66-1.87,1.08-3.05,1.08
			c-5.11,0-5.47-7.93-8.49-10.23c-0.43-0.33-0.95-0.62-1.44-0.82c2.36,0,4.95-2.46,4.95-6.39c0-1.87-0.56-3.44-1.08-4.29
			c-0.92-0.33-1.9-0.52-3.08-0.52c-0.56,0-1.74,0.07-2.65,0.13v20.26l4.16,1.41H585.2l3.57-1.28v-20.32l-3.44-1.21
			c2.72-0.1,5.93-0.3,9.87-0.3C599.96,576.71,602.77,578.68,602.77,582.45z"/>
		<path class="st0" d="M622.02,576.88h9.34l-2.92,1.28v20.29l3.21,1.38h-9.93l3.18-1.34v-20.32L622.02,576.88z"/>
		<path class="st0" d="M648.29,576.88h14.98c0.1,0.79,0.2,1.93,0.2,3.51c0,1.24-0.07,2.65-0.13,3.77c-0.46-1.21-1.28-3.57-2-5.28
			c-1.64-0.46-4.16-0.75-6.56-0.75v9.74c3.93,0,5.41-0.69,6.29-1.7c-0.07,0.59-0.13,1.57-0.13,2.59c0,0.79,0.07,1.31,0.07,1.8
			c-0.85-1.11-2.33-1.74-6.23-1.74v9.9c2.66,0,5.28-0.36,7.01-0.79c0.79-1.44,1.61-3.31,2.07-4.62c0.07,0.85,0.13,2.46,0.13,3.67
			c0,0.92-0.03,1.97-0.07,2.85h-15.83l3.15-1.31v-20.39L648.29,576.88z"/>
		<path class="st0" d="M704.64,576.88l-3.31,1.38v21.57h-2.82l-12.75-18.85v17.44l3.67,1.41h-8.82l3.28-1.44v-19.83l-3.87-1.67h7.31
			l12.19,18.29v-16.91l-3.64-1.38H704.64z"/>
		<path class="st0" d="M740.44,577.47l-0.49,7.15c-0.56-1.8-1.25-3.74-1.84-5.37c-1.08-0.62-2.85-1.25-4.95-1.25
			c-5.64,0-8.43,4.59-8.43,10.59c0,5.84,2.72,10.13,8.43,10.13c1.83,0,3.51-0.46,4.69-1.18c0.89-1.74,1.74-3.74,2.49-5.48
			c0,1.74-0.1,4.59-0.2,6.59c-1.97,1.02-4.95,1.67-7.61,1.67c-6.98,0-11.7-4.49-11.7-11.64c0-6.88,4.39-12.29,12.49-12.29
			C735.59,576.39,738.45,576.81,740.44,577.47z"/>
		<path class="st0" d="M755.83,576.88h9.34l-2.92,1.28v20.29l3.21,1.38h-9.93l3.18-1.34v-20.32L755.83,576.88z"/>
		<path class="st0" d="M802.84,599.82h-10.49l3.54-1.31l-1.93-5.38h-8.29l-2.03,5.34l3.44,1.34h-7.9l2.79-1.41l8.98-22.88
			l8.98,22.81L802.84,599.82z M789.89,581.96l-3.74,9.87h7.31L789.89,581.96z"/>
		<path class="st0" d="M831.3,577.53c0,1.93-0.16,4.59-0.33,6.23c-0.62-1.93-1.15-3.21-1.97-5.05c-0.82-0.46-2-0.82-3.31-0.82
			c-2.85,0-4.46,1.51-4.46,3.57c0,5.34,10.82,5.54,10.82,12.29c0,3.67-3.18,6.42-8.06,6.42c-2.2,0-4.56-0.56-6.16-1.21
			c0-2.16,0.2-4.72,0.33-6.36c0.82,2.29,1.38,3.67,1.93,5.11c0.85,0.49,2.33,0.98,3.8,0.98c2.89,0,4.75-1.7,4.75-3.84
			c0-5.15-10.69-5.67-10.69-12.19c0-3.38,2.82-6.19,7.74-6.19C827.79,576.49,829.82,577.01,831.3,577.53z"/>
	</g>
	<path class="st0" d="M235.29,439.87c0.26,22.5-10.63,50.7-14.71,67.63c-5.79-10.22-19.61-46.71-20.67-63.61
		c-0.09-1.5-0.09-2.85,0.03-4.01c-0.47,0.08-0.96,0.18-1.42,0.28c-6.86,1.42-12.77,4.68-17.55,9.18c0.45,0.94,0.87,1.86,1.29,2.78
		c9.68,21.27,14.84,40.6,14.84,59.22c9.03-1.98,16.32-1.98,25.23,0c3.7-19.04,16.93-58.23,25.09-71.46
		C242.47,441.23,239.63,441.11,235.29,439.87z"/>
	<path class="st0" d="M244.82,474.61c-0.12-22.87,14.59-36.72,37.34-36.72c13.72,0,27.08,6.18,27.08,19.54
		c0.12,12.98-13.23,20.03-27.08,20.03c-6.43,0-12.98-1.61-18.17-5.19c0.49,17.06,10.14,32.64,25.47,32.64c7.3,0,14.34-3.59,19.29-11
		c-3.83,10.76-11.87,19.41-27.57,19.41C263.74,513.31,245.06,499.59,244.82,474.61z M292.54,455.94c0-9.52-3.58-15.58-10.76-15.58
		c-11.62,0-17.68,17.31-17.8,30.54c4.2,2.84,8.04,3.96,11.5,3.96C286.24,474.86,292.54,465.59,292.54,455.94z"/>
	<path class="st0" d="M322.1,472.64c0-12.49-3.71-26.09-8.78-32.77c8.9,1.73,15.95,1.73,24.85,0c-2.84,4.33-4.95,16.2-4.95,20.53
		c4.7-15.7,12.24-22.5,20.77-22.5c4.82,0,8.53,2.47,11.25,2.72c1.73,0.37,3.09,0.37,4.08-0.74c0.99,1.48,1.48,3.46,1.48,5.44
		c0,4.82-2.97,9.77-9.27,9.77c-5.56,0-9.77-3.96-16.32-3.96c-6.68,0-11.75,4.08-11.87,18.42c-0.25,12.49,1.24,29.18,9.27,41.79
		c-9.27-1.73-22.01-1.73-31.28,0C319.13,500.58,322.1,488.09,322.1,472.64z"/>
	<path class="st0" d="M370.07,474.24c0-21.89,14.1-36.23,27.94-36.23c10.14,0,17.56,7.67,19.91,22.01
		c2.47-30.42-2.97-44.76-7.17-49.46c8.9,1.73,17.56,1.73,27.57,0c-4.08,18.55-6.92,41.67-6.92,61.33c0,17.81,2.23,32.89,8.04,39.44
		c-14.22,2.6-22.01-5.69-22.5-22.01c-3.34,14.34-11,23.86-21.27,23.86C382.93,513.19,370.07,498.97,370.07,474.24z M417.55,470.41
		c0-17.68-7.17-28.07-14.47-28.07s-14.84,10.14-14.84,31.9c0,22.87,6.31,33.88,13.11,33.88
		C410.01,508.12,417.55,491.68,417.55,470.41z"/>
	<path class="st0" d="M403.86,552.57c-1.73-11.63-17.8-15.57-33.51-16.2c-31.77-1.48-74.81,9.77-122.16,9.77
		c-57.5,0-81.24-32.65-81.24-62.2c0-13.45,5.04-26.22,14-34.61c4.78-4.5,10.69-7.75,17.55-9.18c0.46-0.11,0.95-0.2,1.42-0.28
		c-0.12,1.17-0.12,2.51-0.03,4.01c-0.99-0.11-2.59-0.12-3.28-0.12c-5.58,0-10.55,3.16-14.38,8.35c-5.11,6.87-8.24,17.32-8.24,28.74
		c0,28.82,17.93,62.94,73.69,63.68c39.2,0.37,93.23-18.79,122.54-18.79C388.04,525.74,405.22,531.55,403.86,552.57z"/>
	<path class="st0" d="M486.22,504.99c-15.41,0-25.11-15.66-25.6-32.81c5.22,3.6,11.81,5.22,18.27,5.22
		c13.92,0,27.35-7.08,27.22-20.14c0-13.42-13.42-19.64-27.22-19.64c-12.26,0-22.19,4-28.76,11.26c0.94-1.48,2.5-3.73,4.6-6.08
		l4.48-4.56l0.04-0.02c1.08-1.07,2.22-2.07,3.39-3.04c1.9-1.01,3.98-1.8,6.23-2.37c1.06-0.27,2.14-0.37,3.24,0.02
		c0.7,0.26,1.47,0.33,2.21,0.5c5.35,1.23,10.89,0.31,16.26,1.49c-1.69-1.15-3.35-2.36-5.15-3.27c-3.62-1.81-7.42-1.78-11.25-0.71
		c-1.49,0.42-2.94,1.05-4.46,1.33c-1.77,0.32-3.47,0.81-5.11,1.45c4.34-3.31,9.06-6,14.04-8.24c1.1-0.49,2.08-0.66,3.31-0.37
		c4.24,1.03,8.45,0.95,12.57-0.71c3.25-1.33,5.47-3.98,8.09-6.13c-0.3,0.01-0.58,0.09-0.85,0.19c-1.45,0.51-2.82,1.17-4.42,1.32
		c-4.4,0.43-8.71,1.45-12.9,2.89c-1.94,0.66-3.85,1.38-6.03,2.17c0.99-1.03,1.67-1.98,2.15-3.02c0.87-1.87,2.18-3.3,3.68-4.72
		c2.79-2.63,4.51-5.86,4.46-9.85c-0.01-1.54-0.29-3.07-0.17-4.63c-0.64,1.23-0.75,2.65-1.51,3.81c-1.44,2.22-2.55,4.61-3.62,7.01
		c-1.25,2.8-2.01,5.78-3.64,8.44c-1.79,2.91-4.32,4.62-7.6,5.86c1.01-2.98,1.85-5.79,2.32-8.69c0.44-2.77,0.61-7.29-0.32-8.72
		c-0.13,0.42-0.21,0.85-0.37,1.23c-0.17,0.4-0.37,0.79-0.61,1.15c-2.83,4.32-3.86,9-2.2,13.94c0.53,1.55-0.12,1.97-1.12,2.54
		c-0.15,0.08-0.31,0.14-0.46,0.22c-2.92,1.78-5.66,3.77-8.24,5.96c-0.14,0.09-0.28,0.18-0.42,0.27l-0.02,0.1
		c-1.14,0.99-2.26,2.01-3.32,3.08c-1.76,1.78-3.45,3.63-5.02,5.6c0.07-1.13,0.39-2.22,0.36-3.31c-0.04-1.33,0.4-2.44,1.03-3.53
		c0.65-1.09,1.11-2.24,1.48-3.44c0.82-2.58,1.07-5.23,0.93-7.91c-0.14-2.67-1.11-5.23-1.07-8.26c-3.29,6.24-4.39,12.48-3.27,19.09
		c0.7,4.06-0.23,7.86-2.28,11.31c-0.96,1.63-1.89,3.28-2.77,4.95c-1.66,2.65-2.96,5.6-3.88,8.83c-0.34,1.01-0.63,2.06-0.76,3.17
		c-0.57,2.9-0.87,6-0.85,9.29c0.25,25.11,19.02,38.91,36.54,38.91c15.79,0,23.87-8.7,27.72-19.51
		C500.63,501.38,493.55,504.99,486.22,504.99z M478.51,440.1c7.21,0,10.81,6.09,10.81,15.66c0,9.7-6.34,19.02-17.15,19.02
		c-3.48,0-7.33-1.12-11.56-3.98C460.73,457.5,466.83,440.1,478.51,440.1z"/>
	<path class="st0" d="M580.08,463.77c0-20.68-10.58-25.85-24.86-25.85c-9.98,0-17.74,4.79-23.77,4.79c-2.34,0-4.55-0.61-5.67-2.7
		c-2.46,1.47-3.68,4.31-3.68,7.14c0,4.67,3.2,9.72,9.11,9.72c11.2,0,12.31-17.6,22.04-17.6c5.29,0,9.35,6.9,9.6,23.27
		c-15.15,0-46.54,6.4-46.54,29.55c0,0.67,0.03,1.34,0.07,1.97c-0.08,0.18-0.2,0.32-0.35,0.47c-4.28,4.29-6.55,9.77-8.91,15.21
		c-1.92,4.45-1.47,8.57,1.5,11.14c2.13-3.77,3.55-7.55,1.51-11.81c-0.38-0.78-0.42-1.63-0.08-2.44c1.39-3.31,3.02-6.48,6.03-9.52
		c0.16,5.17,0.3,9.77,1.3,14.32c1.42,6.4,1,12.24-4.72,16.87c-3.31,2.67-4.71,6.53-3.79,10.92c0.36,1.73,1.04,2.54,2.86,1.26
		c3.86-2.69,6.34-6.26,5.71-11c-0.47-3.58,1.31-6.26,2.27-9.39c2.02,5.68,5.6,10.57,6.44,16.74c0.85,6.28,4.21,11.23,10.41,13.7
		c3.32,1.32,3.83,0.88,3.56-2.61c-0.57-7.38-4.47-12.34-11.11-15.24c-1.59-0.69-2.93-1.48-3.64-3.13c-0.99-2.29-2.19-4.51-2.97-6.86
		c-1.07-3.24-2.66-6.37-2.9-10.46c3.27,3.23,6.03,6.02,8.85,8.75c3.81,3.69,8.44,4.63,13.53,3.93c0.86-0.12,1.77-0.27,0.96-1.51
		c-3.37-5.09-8.85-9.77-16.09-8.5c-0.99,0.18-2.08,0.86-2.96-0.04c-2.39-2.44-5.03-4.86-5.72-8.36c-0.42-2.17-0.59-4.33-0.51-6.49
		c3.05,8.99,11.41,13.27,20.31,13.27c12.32,0,22.79-9.85,25.12-30.53h0.38c0.36,18.84,6.03,32.5,25.85,28.44
		C581.43,506.12,580.08,495.16,580.08,463.77z M544.99,508.34c-5.29,0-9.84-5.66-9.84-16.62c0-20.07,21.18-26.73,27.7-27.95
		C563.59,493.93,553.25,508.34,544.99,508.34z"/>
	<g>
		<path class="st0" d="M594.16,473.38c0-11.37,0.74-22.38-3.46-33.51c8.41,1.73,16.82,1.73,25.22,0
			c-3.46,10.26-5.69,23.99-5.69,36.1c0,19.91,5.32,27.82,11.62,27.82c8.78,0,17.43-16.32,17.43-36.48c0-9.64-0.25-19.04-2.84-27.45
			c8.66,1.61,15.95,1.36,23.62,0c-9.89,17.93-9.64,60.83,0,71.47c-14.34,3.09-20.9-5.44-21.02-28.56
			c-3.96,18.05-14.71,30.54-26.21,30.54C594.4,513.31,594.28,490.81,594.16,473.38z"/>
		<path class="st0" d="M674.4,472.63c0-12.49-3.71-26.09-8.78-32.77c8.9,1.73,15.95,1.73,24.85,0c-2.84,4.33-4.95,16.2-4.95,20.53
			c4.7-15.7,12.24-22.5,20.77-22.5c4.82,0,8.53,2.47,11.25,2.72c1.73,0.37,3.09,0.37,4.08-0.74c0.99,1.48,1.48,3.46,1.48,5.44
			c0,4.82-2.97,9.77-9.27,9.77c-5.57,0-9.77-3.96-16.32-3.96c-6.68,0-11.75,4.08-11.87,18.42c-0.25,12.49,1.24,29.18,9.27,41.79
			c-9.27-1.73-22.01-1.73-31.28,0C671.44,500.58,674.4,488.09,674.4,472.63z"/>
		<path class="st0" d="M722.01,492.17c0-23.24,31.53-29.67,46.74-29.67c-0.25-16.44-4.33-23.37-9.64-23.37
			c-9.77,0-10.88,17.68-22.13,17.68c-5.94,0-9.15-5.07-9.15-9.77c0-2.84,1.24-5.69,3.71-7.17c1.11,2.1,3.34,2.72,5.69,2.72
			c6.06,0,13.85-4.82,23.86-4.82c14.34,0,24.98,5.19,24.98,28.56c0,30.05,7.67,42.16,17.31,42.16c12.98,0,22.63-17.06,22.63-37.09
			c0-28.81-17.93-62.94-73.69-63.68c-39.2-0.37-93.23,18.79-122.53,18.79c-17.8,0-34.99-5.81-33.63-26.83
			c1.73,11.62,17.8,15.58,33.51,16.2c31.78,1.48,74.81-9.77,122.16-9.77c57.5,0,81.23,32.64,81.23,62.19
			c0,23.37-15.21,44.64-39.69,44.64c-12.86,0-23.86-9.52-24.11-30.17h-0.37c-2.35,20.77-12.86,30.66-25.22,30.66
			C732.39,513.44,722.01,506.64,722.01,492.17z M768.75,463.73c-6.55,1.24-27.82,7.91-27.82,28.07c0,11,4.57,16.69,9.89,16.69
			C759.1,508.49,769.49,494.02,768.75,463.73z"/>
	</g>
</g>
</svg>
